HIERARCHY
ROOT Hips
{
	OFFSET 0.000000 0.000000 0.000000
	CHANNELS 6 Xposition Yposition Zposition Zrotation Xrotation Yrotation
	JOINT Spine1
	{
		OFFSET 0.000000 4.165421 0.000002
		CHANNELS 6 Xposition Yposition Zposition Zrotation Xrotation Yrotation
		JOINT Neck
		{
			OFFSET 0.000000 3.320820 0.000002
			CHANNELS 6 Xposition Yposition Zposition Zrotation Xrotation Yrotation
			JOINT Head
			{
				OFFSET 0.000000 2.111520 0.272454
				CHANNELS 6 Xposition Yposition Zposition Zrotation Xrotation Yrotation
				End Site
				{
					OFFSET 0.000000 2.724534 0.000002
				}
			}
		}
		JOINT LeftShoulder
		{
			OFFSET 0.548651 2.681385 -0.072018
			CHANNELS 6 Xposition Yposition Zposition Zrotation Xrotation Yrotation
			JOINT LeftArm
			{
				OFFSET 1.957740 0.000000 0.000000
				CHANNELS 6 Xposition Yposition Zposition Zrotation Xrotation Yrotation
				JOINT LeftForeArm
				{
					OFFSET 3.838815 0.000000 0.000000
					CHANNELS 6 Xposition Yposition Zposition Zrotation Xrotation Yrotation
					JOINT LeftHand
					{
						OFFSET 3.567673 0.000000 0.000000
						CHANNELS 6 Xposition Yposition Zposition Zrotation Xrotation Yrotation
						End Site
						{
							OFFSET 2.043401 0.000000 0.000000
						}
					}
				}
			}
		}
		JOINT RightShoulder
		{
			OFFSET -0.541081 2.681385 -0.072018
			CHANNELS 6 Xposition Yposition Zposition Zrotation Xrotation Yrotation
			JOINT RightArm
			{
				OFFSET -1.957740 0.000000 0.000000
				CHANNELS 6 Xposition Yposition Zposition Zrotation Xrotation Yrotation
				JOINT RightForeArm
				{
					OFFSET -3.838815 0.000000 0.000000
					CHANNELS 6 Xposition Yposition Zposition Zrotation Xrotation Yrotation
					JOINT RightHand
					{
						OFFSET -3.567675 0.000000 0.000000
						CHANNELS 6 Xposition Yposition Zposition Zrotation Xrotation Yrotation
						End Site
						{
							OFFSET -2.043401 0.000000 0.000000
						}
					}
				}
			}
		}
	}
	JOINT LeftUpLeg
	{
		OFFSET 1.362270 0.000000 0.000000
		CHANNELS 6 Xposition Yposition Zposition Zrotation Xrotation Yrotation
		JOINT LeftLeg
		{
			OFFSET 0.000000 -5.729235 -0.000004
			CHANNELS 6 Xposition Yposition Zposition Zrotation Xrotation Yrotation
			JOINT LeftFoot
			{
				OFFSET 0.000000 -6.006450 -0.000004
				CHANNELS 6 Xposition Yposition Zposition Zrotation Xrotation Yrotation
				JOINT LeftToeBase
				{
					OFFSET 0.000000 -0.885476 2.043405
					CHANNELS 6 Xposition Yposition Zposition Zrotation Xrotation Yrotation
					End Site
					{
						OFFSET 0.000000 0.000000 0.544906
					}
				}
			}
		}
	}
	JOINT RightUpLeg
	{
		OFFSET -1.362270 0.000000 0.000000
		CHANNELS 6 Xposition Yposition Zposition Zrotation Xrotation Yrotation
		JOINT RightLeg
		{
			OFFSET 0.000000 -5.729235 -0.000004
			CHANNELS 6 Xposition Yposition Zposition Zrotation Xrotation Yrotation
			JOINT RightFoot
			{
				OFFSET 0.000000 -6.006450 -0.000004
				CHANNELS 6 Xposition Yposition Zposition Zrotation Xrotation Yrotation
				JOINT RightToeBase
				{
					OFFSET 0.000000 -0.885476 2.043405
					CHANNELS 6 Xposition Yposition Zposition Zrotation Xrotation Yrotation
					End Site
					{
						OFFSET 0.000000 0.000000 0.544906
					}
				}
			}
		}
	}
}
MOTION
Frames: 9
Frame Time: 0.041667
-0.505207 11.195943 0.279071 2.313431 17.800658 -0.229062 0.000000 4.165422 0.000000 7.697391 -20.184606 -1.369362 -0.000000 3.320821 0.000002 -2.860031 13.412664 1.910106 0.000000 2.111521 0.272455 -5.899106 5.084526 2.273397 0.548649 2.681385 -0.072017 18.563590 -7.523764 3.257851 1.957740 0.000000 0.000001 -6.375483 -9.557310 -12.688407 3.838815 0.000001 -0.000002 -3.011653 -4.558397 1.884241 3.567669 0.000004 0.000005 3.701260 -3.905559 18.559951 -0.541082 2.681385 -0.072017 -14.487362 0.100728 -4.769650 -1.957742 0.000000 -0.000000 18.880777 26.697802 15.534145 -3.838812 -0.000001 0.000002 -44.241618 -29.917267 79.178483 -3.567676 -0.000001 -0.000000 -31.463673 9.209387 -1.968063 1.362270 0.000002 -0.000000 28.588127 -30.008149 30.053802 0.000000 -5.729235 -0.000003 -13.871562 31.500300 20.047391 -0.000002 -6.006453 -0.000004 -7.115348 1.251626 17.707732 -0.000001 -0.885474 2.043401 0.000000 -0.000002 0.000006 -1.362270 0.000001 -0.000000 -34.843165 -28.311663 -4.525811 0.000001 -5.729232 -0.000004 27.038106 21.607058 -30.083527 0.000001 -6.006455 -0.000004 9.131775 -9.123768 -25.507620 -0.000000 -0.885476 2.043406 -0.000001 -0.000002 -0.000002 
-0.505026 11.196851 0.282131 2.283904 17.766391 -0.176543 0.000000 4.165418 0.000004 7.697146 -20.162995 -1.410689 0.000000 3.320818 0.000002 -2.866381 13.409862 1.920449 0.000000 2.111522 0.272456 -5.920300 5.145978 2.289298 0.548649 2.681385 -0.072018 18.568361 -7.536281 3.247962 1.957742 0.000004 -0.000000 -6.421243 -9.598190 -12.712357 3.838813 -0.000000 -0.000001 -3.016815 -4.539384 1.910199 3.567671 0.000001 0.000003 3.686918 -3.888497 18.548349 -0.541081 2.681383 -0.072016 -14.491730 0.112284 -4.775150 -1.957741 0.000001 0.000001 18.925628 26.659767 15.539293 -3.838811 0.000001 -0.000001 -44.183681 -29.879298 79.238630 -3.567673 -0.000001 0.000004 -31.522313 9.223677 -1.919744 1.362270 -0.000001 0.000002 28.577631 -29.981894 29.993966 -0.000000 -5.729233 -0.000003 -13.863029 31.481230 20.038768 0.000000 -6.006450 -0.000004 -7.121473 1.260419 17.697508 0.000000 -0.885477 2.043405 -0.000004 -0.000000 -0.000004 -1.362270 -0.000001 0.000000 -34.804667 -28.227770 -4.501855 0.000001 -5.729235 -0.000004 27.018994 21.578256 -30.055739 0.000002 -6.006450 -0.000004 9.148514 -9.132363 -25.530982 0.000001 -0.885474 2.043405 0.000001 -0.000004 -0.000001 
-0.504650 11.197554 0.283316 2.272010 17.764576 -0.164752 -0.000000 4.165419 0.000001 7.688669 -20.168531 -1.410339 0.000000 3.320823 0.000002 -2.841556 13.402741 1.919986 0.000000 2.111521 0.272456 -5.989248 5.211808 2.310540 0.548651 2.681388 -0.072018 18.581883 -7.543859 3.238762 1.957740 0.000006 0.000001 -6.469120 -9.618534 -12.737388 3.838818 -0.000003 0.000000 -3.007803 -4.508925 1.933611 3.567677 0.000004 0.000001 3.677866 -3.859123 18.545531 -0.541081 2.681385 -0.072018 -14.478755 0.106289 -4.775957 -1.957741 0.000001 0.000000 18.966885 26.639170 15.536742 -3.838814 0.000005 -0.000000 -44.170529 -29.847172 79.274345 -3.567677 0.000001 0.000001 -31.472583 9.256400 -1.863131 1.362270 0.000000 -0.000002 28.579094 -29.980962 30.058430 -0.000001 -5.729234 -0.000002 -13.815278 31.501714 19.964819 0.000000 -6.006452 -0.000004 -7.123929 1.264086 17.684596 0.000000 -0.885474 2.043405 0.000002 -0.000000 0.000001 -1.362270 0.000002 -0.000002 -34.784644 -28.219632 -4.495540 0.000000 -5.729232 -0.000004 26.998758 21.589489 -30.029924 -0.000001 -6.006454 -0.000003 9.187818 -9.148863 -25.532499 0.000000 -0.885477 2.043405 0.000002 -0.000003 -0.000003 
-0.504183 11.198336 0.284571 2.264608 17.765640 -0.147546 0.000000 4.165425 0.000002 7.692395 -20.171000 -1.416125 -0.000000 3.320821 0.000002 -2.867141 13.388201 1.939623 0.000000 2.111525 0.272455 -6.006159 5.271354 2.330745 0.548647 2.681385 -0.072018 18.568966 -7.557809 3.203414 1.957740 0.000003 -0.000000 -6.503037 -9.681839 -12.743586 3.838815 -0.000000 0.000000 -3.029081 -4.482223 1.960243 3.567675 0.000001 -0.000001 3.687811 -3.830379 18.525486 -0.541082 2.681384 -0.072018 -14.491274 0.108736 -4.788144 -1.957744 -0.000000 0.000002 19.018482 26.540640 15.517495 -3.838815 0.000006 0.000002 -44.060355 -29.774120 79.413189 -3.567677 0.000005 0.000001 -31.486264 9.317291 -1.827676 1.362270 0.000006 -0.000001 28.570022 -29.982731 30.041522 -0.000002 -5.729236 -0.000004 -13.811102 31.497226 19.961059 -0.000000 -6.006452 -0.000004 -7.081526 1.281762 17.684058 0.000000 -0.885476 2.043404 0.000002 0.000001 -0.000002 -1.362270 0.000002 -0.000000 -34.772005 -28.205114 -4.489764 -0.000002 -5.729234 -0.000004 26.985294 21.579776 -30.043513 0.000001 -6.006450 -0.000004 9.182934 -9.133515 -25.541701 -0.000000 -0.885476 2.043404 0.000001 -0.000002 -0.000005 
-0.504110 11.199323 0.286194 2.265064 17.756888 -0.141648 0.000000 4.165414 0.000002 7.684541 -20.165695 -1.404155 0.000000 3.320823 0.000002 -2.869567 13.382983 1.930685 0.000000 2.111524 0.272457 -6.048670 5.308746 2.330408 0.548649 2.681389 -0.072018 18.593312 -7.553730 3.201101 1.957737 0.000001 -0.000000 -6.571652 -9.710304 -12.793733 3.838816 0.000002 -0.000001 -3.045662 -4.451695 1.982461 3.567671 0.000001 0.000005 3.675478 -3.800663 18.534471 -0.541081 2.681391 -0.072017 -14.492584 0.109098 -4.817215 -1.957742 -0.000006 0.000000 19.037732 26.569791 15.518666 -3.838815 0.000004 0.000001 -44.104055 -29.787459 79.399296 -3.567677 0.000004 0.000002 -31.469980 9.336408 -1.821411 1.362270 -0.000002 -0.000000 28.549392 -29.965894 30.035494 0.000000 -5.729235 -0.000003 -13.787270 31.480178 19.952492 0.000001 -6.006450 -0.000004 -7.101693 1.300196 17.671149 0.000000 -0.885477 2.043404 -0.000001 -0.000005 -0.000001 -1.362270 -0.000003 -0.000000 -34.760571 -28.196546 -4.485533 0.000000 -5.729234 -0.000004 26.972873 21.589588 -30.054195 0.000001 -6.006454 -0.000004 9.157821 -9.096543 -25.559288 0.000000 -0.885476 2.043405 -0.000002 -0.000003 -0.000012 
-0.503578 11.199849 0.287142 2.254655 17.759586 -0.125694 0.000000 4.165416 0.000006 7.674267 -20.172730 -1.395541 -0.000000 3.320822 0.000002 -2.896939 13.369255 1.941231 0.000000 2.111520 0.272454 -6.030760 5.360746 2.334279 0.548650 2.681383 -0.072018 18.618589 -7.547665 3.192503 1.957740 0.000001 -0.000001 -6.618686 -9.745719 -12.837620 3.838816 -0.000000 -0.000000 -3.077112 -4.410779 2.012257 3.567671 -0.000003 0.000002 3.655911 -3.760323 18.572341 -0.541082 2.681383 -0.072018 -14.478227 0.106772 -4.832955 -1.957741 -0.000002 -0.000000 19.062360 26.572277 15.510781 -3.838812 0.000003 0.000002 -44.111172 -29.785243 79.425401 -3.567674 0.000000 0.000003 -31.473894 9.369512 -1.831646 1.362270 -0.000001 0.000002 28.547238 -29.966632 30.014693 -0.000001 -5.729235 -0.000005 -13.795741 31.474717 19.941463 0.000001 -6.006449 -0.000004 -7.101202 1.288016 17.690135 -0.000000 -0.885476 2.043405 -0.000002 0.000002 -0.000005 -1.362270 -0.000001 0.000001 -34.743567 -28.186418 -4.479357 0.000001 -5.729234 -0.000004 26.953158 21.588082 -29.990080 0.000001 -6.006451 -0.000004 9.193184 -9.126518 -25.612777 0.000000 -0.885471 2.043405 -0.000000 -0.000006 -0.000008 
-0.503598 11.200563 0.288054 2.244551 17.761593 -0.113182 0.000000 4.165418 0.000004 7.666281 -20.176654 -1.391489 0.000000 3.320827 0.000002 -2.927047 13.340906 1.961353 0.000000 2.111517 0.272457 -6.012329 5.418252 2.347962 0.548649 2.681390 -0.072018 18.636731 -7.543112 3.199407 1.957740 0.000002 -0.000001 -6.653030 -9.753912 -12.894748 3.838815 -0.000001 -0.000001 -3.105930 -4.401084 2.038189 3.567671 0.000007 0.000003 3.682123 -3.744705 18.585658 -0.541081 2.681390 -0.072018 -14.475628 0.111190 -4.840403 -1.957741 -0.000003 -0.000000 19.092044 26.557331 15.503961 -3.838814 0.000002 -0.000002 -44.071857 -29.779946 79.493218 -3.567678 0.000000 0.000001 -31.486981 9.388097 -1.841551 1.362270 0.000001 0.000000 28.545924 -29.971393 30.044602 -0.000002 -5.729235 -0.000003 -13.761177 31.482726 19.899659 0.000000 -6.006450 -0.000004 -7.139505 1.291145 17.685573 -0.000000 -0.885476 2.043405 0.000002 0.000002 -0.000002 -1.362270 0.000000 0.000000 -34.725607 -28.183492 -4.474574 -0.000000 -5.729232 -0.000004 26.934337 21.596367 -29.960936 0.000002 -6.006451 -0.000004 9.171298 -9.095371 -25.649705 -0.000000 -0.885474 2.043405 0.000000 -0.000002 -0.000004 
-0.503905 11.201297 0.288749 2.232076 17.768841 -0.095306 0.000000 4.165421 0.000002 7.650416 -20.190370 -1.393504 0.000000 3.320821 0.000002 -2.936440 13.335751 1.959393 0.000000 2.111516 0.272456 -6.013351 5.438510 2.344959 0.548650 2.681387 -0.072016 18.661272 -7.506771 3.213807 1.957740 0.000001 -0.000001 -6.687835 -9.785064 -12.966779 3.838815 0.000004 -0.000001 -3.124469 -4.374700 2.062493 3.567672 0.000008 0.000001 3.618781 -3.727417 18.592583 -0.541081 2.681382 -0.072016 -14.485014 0.090289 -4.805058 -1.957742 -0.000003 0.000000 19.173292 26.577195 15.423406 -3.838812 0.000006 0.000001 -44.024695 -29.799484 79.582755 -3.567677 0.000000 0.000002 -31.530417 9.390415 -1.863833 1.362270 -0.000001 0.000000 28.547465 -29.978069 30.017476 -0.000001 -5.729237 -0.000004 -13.766323 31.463260 19.922887 -0.000001 -6.006452 -0.000004 -7.107459 1.307663 17.682608 0.000000 -0.885476 2.043405 -0.000001 0.000006 -0.000005 -1.362270 0.000000 -0.000002 -34.700981 -28.200985 -4.471417 0.000001 -5.729234 -0.000004 26.912955 21.627241 -30.036262 0.000002 -6.006454 -0.000004 9.244183 -9.110823 -25.595917 -0.000000 -0.885474 2.043404 -0.000004 -0.000006 -0.000002 
-0.503856 11.202210 0.289347 2.216723 17.779093 -0.086603 0.000000 4.165418 0.000002 7.643115 -20.210007 -1.387428 0.000001 3.320821 0.000000 -2.915393 13.332055 1.945698 0.000000 2.111524 0.272455 -6.082673 5.453431 2.349086 0.548649 2.681387 -0.072018 18.678308 -7.502079 3.213619 1.957741 0.000002 0.000001 -6.700383 -9.762779 -13.001548 3.838815 -0.000001 -0.000000 -3.144436 -4.411982 2.055403 3.567676 0.000006 0.000001 3.647271 -3.760630 18.570733 -0.541081 2.681386 -0.072017 -14.474726 0.088100 -4.812188 -1.957742 0.000001 -0.000000 19.189910 26.570631 15.418208 -3.838816 0.000003 0.000003 -44.003504 -29.785864 79.634828 -3.567677 -0.000003 -0.000000 -31.444251 9.409067 -1.820299 1.362270 -0.000001 -0.000000 28.559896 -29.983721 30.042614 -0.000001 -5.729234 -0.000003 -13.748222 31.458079 19.894342 0.000000 -6.006450 -0.000004 -7.119216 1.319935 17.678200 -0.000000 -0.885476 2.043403 0.000003 0.000003 -0.000003 -1.362270 -0.000001 -0.000002 -34.675559 -28.201108 -4.464827 -0.000001 -5.729234 -0.000004 26.887946 21.621522 -30.003904 0.000003 -6.006454 -0.000005 9.198331 -9.056947 -25.615260 -0.000000 -0.885476 2.043405 0.000000 -0.000000 0.000002 
